<?xml version="1.0"?>
<svg xmlns="http://www.w3.org/2000/svg" xmlns:xlink="http://www.w3.org/1999/xlink" xmlns:svgjs="http://svgjs.com/svgjs" version="1.1" width="512" height="512" x="0" y="0" viewBox="0 0 64 64" style="enable-background:new 0 0 512 512" xml:space="preserve" class=""><g><path xmlns="http://www.w3.org/2000/svg" d="m10.555 30.832 2.99-1.993c.682 2.983 1.859 5.05 2.651 6.161h6.388l-1.928-4.627c-1.724-4.138-2.068-8.722-.981-13.071.419-1.676 1.869-3.078 3.617-4.021v-.003s-.718.052-1.77.309l.885-2.971-1.917-.571-.744 2.498-2.497-.744-.571 1.917 2.389.712c-1.938.876-4.053 2.411-5.203 5.076-.076-.132-.179-.248-.31-.335l-3-2-1.109 1.664 1.752 1.167-1.752 1.168 1.109 1.664 2.817-1.878c-.234.907-.371 1.914-.371 3.046 0 1.057.087 2.02.208 2.937l-2.653-1.769-1.109 1.664 1.751 1.168-1.752 1.168z" fill="#133664" data-original="#000000" style="" class=""/><path xmlns="http://www.w3.org/2000/svg" d="m20.832 62h22.336c.482 0 .895-.344.983-.818l4.567-17.182h-33.436l4.566 17.182c.088.474.502.818.984.818z" fill="#133664" data-original="#000000" style="" class=""/><path xmlns="http://www.w3.org/2000/svg" d="m12 38v3c0 .552.448 1 1 1h38c.552 0 1-.448 1-1v-3c0-.552-.448-1-1-1h-38c-.552 0-1 .448-1 1z" fill="#133664" data-original="#000000" style="" class=""/><path xmlns="http://www.w3.org/2000/svg" d="m59 13c-2.209-2.209-5.791-2.209-8 0 2.209 2.209 5.791 2.209 8 0z" fill="#133664" data-original="#000000" style="" class=""/><path xmlns="http://www.w3.org/2000/svg" d="m39 13c2.209 2.209 5.791 2.209 8 0-2.209-2.209-5.791-2.209-8 0z" fill="#133664" data-original="#000000" style="" class=""/><path xmlns="http://www.w3.org/2000/svg" d="m49 3c-2.209 2.209-2.209 5.791 0 8 2.209-2.209 2.209-5.791 0-8z" fill="#133664" data-original="#000000" style="" class=""/><path xmlns="http://www.w3.org/2000/svg" d="m49 23c2.209-2.209 2.209-5.791 0-8-2.209 2.209-2.209 5.791 0 8z" fill="#133664" data-original="#000000" style="" class=""/><path xmlns="http://www.w3.org/2000/svg" d="m56.071 5.929c-3.124 0-5.657 2.533-5.657 5.657 3.124 0 5.657-2.533 5.657-5.657z" fill="#133664" data-original="#000000" style="" class=""/><path xmlns="http://www.w3.org/2000/svg" d="m41.929 20.071c3.124 0 5.657-2.533 5.657-5.657-3.124 0-5.657 2.533-5.657 5.657z" fill="#133664" data-original="#000000" style="" class=""/><path xmlns="http://www.w3.org/2000/svg" d="m41.929 5.929c0 3.124 2.533 5.657 5.657 5.657 0-3.124-2.533-5.657-5.657-5.657z" fill="#133664" data-original="#000000" style="" class=""/><path xmlns="http://www.w3.org/2000/svg" d="m56.071 20.071c0-3.124-2.533-5.657-5.657-5.657 0 3.124 2.533 5.657 5.657 5.657z" fill="#133664" data-original="#000000" style="" class=""/><path xmlns="http://www.w3.org/2000/svg" d="m47.586 14.414c.362.362.862.586 1.414.586s1.052-.224 1.414-.586.586-.862.586-1.414-.224-1.052-.586-1.414-.862-.586-1.414-.586-1.052.224-1.414.586-.586.862-.586 1.414.224 1.052.586 1.414z" fill="#133664" data-original="#000000" style="" class=""/><path xmlns="http://www.w3.org/2000/svg" d="m21.448 25.886 2.026 9.114h3.972l-2.026-9.114c-.47-2.115-.6-4.272-.245-6.4.491-2.945 1.921-6.394 5.826-7.271-.599-.134-1.248-.215-1.971-.215-5.445 0-7.261 4.083-7.828 7.486-.354 2.128-.224 4.285.246 6.4z" fill="#133664" data-original="#000000" style="" class=""/><path xmlns="http://www.w3.org/2000/svg" d="m36.877 19.61c-.548-4.386-2.189-6.61-4.877-6.61s-4.329 2.224-4.877 6.61c-.239 1.912-.179 3.967.178 6.111l1.546 9.279h6.306l1.546-9.279c.358-2.143.417-4.199.178-6.111zm-2.877 7.39h-1v1h-2v-1h-1v-2h1v-1h2v1h1zm0-8h-1v1h-2v-1h-1v-2h1v-1h2v1h1z" fill="#133664" data-original="#000000" style="" class=""/><path xmlns="http://www.w3.org/2000/svg" d="m32.427 13.04h.019c.334-.006.643-.179.824-.461l.213-.332c2.667 1.348 4.438 3.742 5.106 7.091.42 2.104.318 4.354-.303 6.688l-2.387 8.974h3.135l2.43-9.138c.421-1.584.614-3.191.506-4.792-.014 0-.027.002-.041.002-.552 0-1-.448-1-1 0-.78.142-1.525.39-2.219-.402-1.16-1.015-2.312-1.948-3.285-.38-.247-.745-.527-1.078-.86-.039-.039-.056-.088-.087-.131-1.156-.799-2.673-1.345-4.605-1.515l1.613-2.518-1.685-1.078-1.135 1.773-1.2-1.73-1.644 1.14 2.055 2.962c.187.269.495.429.822.429z" fill="#133664" data-original="#000000" style="" class=""/><path xmlns="http://www.w3.org/2000/svg" d="m40.5 35h7.304c.793-1.112 1.969-3.178 2.651-6.161l2.99 1.993 1.109-1.664-1.751-1.168 1.752-1.168-1.109-1.664-2.653 1.769c.12-.917.207-1.88.207-2.937 0-.678-.051-1.309-.139-1.904-.302.576-.67 1.127-1.154 1.612-.195.194-.451.292-.707.292s-.512-.098-.707-.293c-1.205-1.205-1.843-2.761-1.929-4.342-.925.829-2.08 1.402-3.358 1.612.574 4.648-.206 9.423-2.353 13.716z" fill="#133664" data-original="#000000" style="" class=""/></g></svg>
