<?xml version="1.0"?>
<svg xmlns="http://www.w3.org/2000/svg" xmlns:xlink="http://www.w3.org/1999/xlink" xmlns:svgjs="http://svgjs.com/svgjs" version="1.1" width="512" height="512" x="0" y="0" viewBox="0 0 50 56" style="enable-background:new 0 0 512 512" xml:space="preserve"><g><g xmlns="http://www.w3.org/2000/svg" id="Page-1" fill="none" fill-rule="evenodd"><g id="022---Tape-Measure" fill="rgb(0,0,0)" fill-rule="nonzero"><path id="Shape" d="m22 20c7.637 0 22-3.008 22-10 0-5.42-10.075-10-22-10s-22 4.58-22 10 10.075 10 22 10zm-.913-16.985c.1987861-.44929974.5139843-.83734226.913-1.124.6518293-.47240381 1.4798912-.63068822 2.26-.432 2.5450815.57681988 4.9725283 1.5854093 7.177 2.982 2.336 1.578 4.544 4.231 3.215 6.678-2.652 4.881-12.682 4.881-12.683 4.881-4.969 0-12.969-1.737-12.969-6.5 0-3.532 5.144-6.258 12.087-6.485z" fill="#133664" data-original="#000000" style=""/><path id="Shape" d="m20.145 13.93.639-8.9c-5.819.28-9.784 2.493-9.784 4.47 0 1.891 3.634 4.031 9.145 4.43z" fill="#133664" data-original="#000000" style=""/><path id="Shape" d="m27.717 4.71c-1.2826918-.53770222-2.6049467-.97566781-3.955-1.31-.2099457-.04781275-.4303025-.00155118-.6032949.12665537-.1729923.12820655-.2813655.32557041-.2967051.54034463v.019l-.719 9.9140236c1.7287064.0024769 3.4519864-.1934724 5.136-.5840236zm-1.717 5.29c0 .5522847-.4477153 1-1 1s-1-.4477153-1-1v-1c0-.55228475.4477153-1 1-1s1 .44771525 1 1z" fill="#133664" data-original="#000000" style=""/><path id="Shape" d="m32.843 10.262c.686-1.446-1.2-3.265-2.528-4.164-.2073333-.14-.4223333-.27633333-.645-.409l-.358 7.111c1.873-.7 3.065-1.555 3.531-2.538z" fill="#133664" data-original="#000000" style=""/><path id="Shape" d="m24.457 48.563c-.534545-.3908746-1.2099658-.5362827-1.858-.4-2.3298845.3468216-4.510784-1.229037-4.913-3.55-.0737722-.6572136-.4219716-1.2526014-.958604-1.6391215s-1.2116685-.528138-1.858396-.3898785c-1.0328146.157068-2.0874875-.0672322-2.967-.631-.9013333.634-1.7823333 1.2503333-2.643 1.849-.51677769.3604204-.83350763.9432837-.85475969 1.5729744-.02125206.6296906.25545864 1.2325826.74675969 1.6270256l10.049 8.035c.7087669.5694129 1.7124132.5891325 2.443.048 1.4706667-1.0973333 2.9173333-2.2213333 4.34-3.372-.2623628-.474111-.4524589-.9847415-.564-1.515-.0743704-.656737-.4240398-1.2510296-.962-1.635zm-4.676 3.062c-.1657145.2072013-.4069781.3400545-.670678.3693128-.2636998.0292583-.5282179-.0474769-.735322-.2133128l-5-4c-.4313344-.345178-.5011779-.9746656-.156-1.406.345178-.4313344.9746656-.5011779 1.406-.156l5 4c.2072013.1657145.3400545.4069781.3693128.670678.0292583.2636998-.0474769.5282179-.2133128.735322z" fill="#133664" data-original="#000000" style=""/><path id="Shape" d="m44.229 4.748c-.9064696-.81530044-1.9243377-1.49747077-3.023-2.026 2.632 1.748 4.841 4.242 4.794 7.387-.0901496 1.8145841-.8265222 3.5370431-2.076 4.856-5.125 7.068-18.718 17.528-30.1 25.628.2993921.0288843.6009473.027209.9-.005 2.3258646-.3602042 4.5103209 1.2129071 4.906 3.533.0773793.6585057.426954 1.254527.9639222 1.6434775.5369682.3889504 1.2122669.5352913 1.8620778.4035225 2.3261162-.3485859 4.5048153 1.2243763 4.906 3.542.0551931.2354475.1249949.4672294.209.694 1.477-1.23 2.93-2.477 4.334-3.75l-4.555-3.894c-.2715219-.2322226-.3985291-.5916604-.3331794-.9429165.0653498-.3512562.3131284-.6409666.6500001-.7600001.3368716-.1190335.7116575-.0493061.9831793.1829166l4.723 4.042c1.408-1.315 2.778-2.645 4.093-3.99l-4.117-3.533c-.2869618-.2275866-.4265481-.5938406-.3638502-.9546891.0626979-.3608486.3176476-.6585514.66456-.7760016.3469123-.1174502.7302769-.0358542.9992902.2126907l4.2 3.6c1.046-1.107 2.072-2.219 3.046-3.337.259-.3.524-.6.791-.91l-2.981-3.409c-.237298-.2687274-.3125872-.643922-.1973349-.9833946.1152524-.3394726.4034099-.5912756.7552681-.6599819.3518582-.0687064.7135742.0561976.9480668.3273765l2.789 3.185c1.1788442-1.394906 2.2549988-2.8734488 3.22-4.424l-1.991-2.8c-.3203252-.4501121-.2151121-1.0746748.235-1.395s1.0746748-.2151121 1.395.235l1.422 2c.7054806-1.4337459 1.1825698-2.9689338 1.414-4.55.795-5.93-.583-13.91-5.466-18.372z" fill="#133664" data-original="#000000" style=""/><path id="Shape" d="m9 34v-5c0-.5522847.44771525-1 1-1 .5522847 0 1 .4477153 1 1v5.6c1.64285.4415452 3.3131848.7736077 5 .994v-5.594c0-.5522847.4477153-1 1-1s1 .4477153 1 1v5.093c6.7783447-4.8747072 13.253964-10.1571241 19.391-15.818-4.908644 1.8850154-10.1335454 2.8100922-15.391 2.725-9.967 0-18.33-2.893-22-7.126v11.126c0 1.755 1.1 3.449 3 4.931v-4.931c0-.5522847.44771525-1 1-1s1 .4477153 1 1v6.249c1.27814577.7023986 2.6168712 1.2884256 4 1.751z" fill="#133664" data-original="#000000" style=""/></g></g></g></svg>
